<?xml version="1.0" standalone="no"?>
<!DOCTYPE svg PUBLIC "-//W3C//DTD SVG 20010904//EN"
 "http://www.w3.org/TR/2001/REC-SVG-20010904/DTD/svg10.dtd">
<svg version="1.0" xmlns="http://www.w3.org/2000/svg"
 width="300.000000pt" height="300.000000pt" viewBox="0 0 300.000000 300.000000"
 preserveAspectRatio="xMidYMid meet">
<metadata>
Created by potrace 1.11, written by Peter Selinger 2001-2013
</metadata>
<g transform="translate(0.000000,300.000000) scale(0.100000,-0.100000)"
fill="#000000" stroke="none">
<path d="M838 2928 c-67 -88 -155 -258 -186 -358 -30 -96 -79 -440 -65 -463 2
-4 14 0 26 8 36 25 73 18 117 -21 22 -20 40 -44 40 -53 0 -19 53 -75 62 -66 3
4 18 -19 33 -49 28 -58 30 -89 9 -208 -9 -54 -1 -68 33 -59 21 5 29 14 31 34
2 15 7 25 11 23 8 -5 41 117 41 152 0 12 5 24 10 27 6 4 8 15 5 24 -3 10 1 24
9 30 8 7 18 27 22 44 8 38 27 69 72 120 23 27 32 46 30 64 -2 16 3 28 11 31 8
3 11 0 7 -7 -4 -6 -1 -11 7 -11 24 0 39 46 41 129 1 48 7 86 14 93 7 7 12 22
12 34 0 13 5 35 12 51 6 15 10 36 9 46 -3 25 27 113 44 127 10 8 16 7 22 -5 8
-14 14 -14 39 -4 16 7 39 21 51 32 12 10 37 19 57 20 31 1 38 5 42 26 9 43 13
51 24 51 5 0 10 -7 10 -16 0 -8 5 -12 10 -9 6 3 10 0 10 -8 0 -24 37 -26 77
-6 30 15 50 18 98 13 42 -4 77 -1 117 11 70 20 168 16 193 -8 9 -10 26 -17 38
-17 13 0 31 -6 42 -13 22 -14 83 -37 155 -57 72 -20 91 -32 128 -82 40 -53 57
-53 48 1 -4 20 -10 74 -15 121 -11 119 -19 132 -147 238 l-52 42 -675 0 -674
0 -55 -72z"/>
<path d="M1780 2022 c0 -14 89 -54 101 -46 5 3 25 -3 44 -12 46 -21 54 -13 19
19 -16 16 -44 28 -73 32 -25 3 -56 9 -68 12 -13 3 -23 0 -23 -5z"/>
<path d="M2430 1961 c-47 -10 -77 -27 -84 -48 -3 -10 -27 -26 -53 -36 -72 -27
-76 -31 -89 -68 -19 -51 -17 -107 7 -174 l21 -61 99 1 c54 0 101 3 104 6 9 10
-6 39 -21 40 -28 3 -84 28 -84 39 0 3 22 5 48 3 26 -2 66 0 87 5 l40 8 0 54
c0 54 0 55 -30 56 -41 0 -154 36 -159 50 -2 6 0 17 5 25 6 11 34 14 119 13 60
-1 110 3 110 8 0 5 5 6 10 3 6 -3 10 -2 10 3 0 13 -80 82 -94 81 -6 -1 -27 -4
-46 -8z"/>
<path d="M1600 1872 c-80 -20 -91 -40 -19 -33 9 1 19 -5 22 -14 8 -19 37 -20
37 0 0 8 7 15 15 15 18 0 20 -30 3 -31 -17 -1 22 -17 42 -18 9 -1 24 12 33 29
18 29 34 31 65 6 11 -8 11 -12 -3 -22 -15 -11 -14 -14 14 -28 16 -9 39 -16 51
-16 21 0 28 24 9 36 -8 5 -8 8 0 14 17 10 4 36 -27 57 -34 22 -162 25 -242 5z"/>
<path d="M951 1684 c0 -11 3 -14 6 -6 3 7 2 16 -1 19 -3 4 -6 -2 -5 -13z"/>
<path d="M565 1520 c20 -184 30 -324 24 -345 -6 -23 -3 -93 4 -88 4 2 7 11 7
19 0 8 4 14 8 14 9 0 6 264 -3 347 -4 29 -15 63 -25 75 l-20 23 5 -45z"/>
<path d="M2230 1440 c0 -37 20 -82 34 -77 23 8 30 54 12 81 -23 36 -46 34 -46
-4z"/>
<path d="M2235 1280 c-3 -11 -24 -34 -45 -53 -26 -22 -36 -37 -31 -46 14 -23
1 -53 -21 -48 -14 4 -22 -2 -28 -19 -9 -22 -21 -29 -43 -25 -4 1 -17 -4 -28
-10 l-21 -11 20 -14 c11 -8 28 -11 38 -7 14 5 16 1 12 -25 -4 -28 -1 -33 29
-43 29 -9 38 -22 35 -50 -1 -3 9 -4 22 -2 19 4 23 0 22 -19 -1 -16 4 -22 15
-20 14 2 15 -5 8 -50 -4 -29 -9 -75 -12 -103 l-5 -50 40 45 c21 25 46 59 55
75 8 17 22 37 30 46 23 27 -15 35 -43 8 -12 -11 -27 -18 -33 -14 -14 8 -10 27
23 130 31 96 31 91 6 98 -23 6 -27 37 -5 37 26 0 29 29 9 111 -18 77 -36 99
-49 59z"/>
<path d="M1485 1204 c-9 -14 -14 -28 -12 -31 3 -3 13 9 22 26 19 38 14 41 -10
5z"/>
<path d="M2006 1202 c-3 -5 1 -13 10 -16 25 -10 92 -7 99 4 3 6 -2 10 -12 10
-10 0 -34 3 -54 6 -21 4 -39 2 -43 -4z"/>
<path d="M1580 1120 c16 -30 47 -43 54 -24 13 34 6 44 -29 44 -32 0 -35 -2
-25 -20z"/>
<path d="M577 1013 c-6 -10 51 -48 60 -40 2 3 -6 11 -19 18 -12 6 -26 16 -29
22 -4 5 -9 5 -12 0z"/>
<path d="M1940 989 c0 -11 61 -27 78 -21 18 6 12 10 -36 20 -23 6 -42 6 -42 1z"/>
<path d="M2055 990 c-3 -5 -1 -10 4 -10 6 0 11 5 11 10 0 6 -2 10 -4 10 -3 0
-8 -4 -11 -10z"/>
<path d="M2360 969 c0 -5 5 -7 10 -4 6 3 10 8 10 11 0 2 -4 4 -10 4 -5 0 -10
-5 -10 -11z"/>
<path d="M2345 930 c-10 -11 -13 -20 -7 -20 7 0 15 -1 19 -2 3 -2 7 7 8 20 2
27 2 27 -20 2z"/>
<path d="M1390 502 c1 -13 425 -346 450 -354 25 -8 46 28 60 104 13 77 30 120
61 153 18 20 18 21 -1 22 -11 1 -20 -2 -20 -8 0 -5 -7 -9 -15 -9 -9 0 -26 -7
-39 -16 -19 -12 -43 -14 -120 -10 -128 8 -210 30 -301 81 -41 24 -75 40 -75
37z"/>
</g>
</svg>
